<svg xmlns="http://www.w3.org/2000/svg" width="1100" height="520">
<rect width="100%" height="100%" fill="white"/>
<text x="550.0" y="35" text-anchor="middle" font-size="22">Utilization Comparison</text>
<line x1="150.0" y1="218.60335195530726" x2="150.0" y2="263.18435754189954" stroke="black"/>
<line x1="150.0" y1="360.3072625698325" x2="150.0" y2="407.5418994413409" stroke="black"/>
<rect x="114.0" y="263.18435754189954" width="72.0" height="97.12290502793297" fill="#cfe8ff" stroke="black"/>
<line x1="114.0" y1="291.8435754189944" x2="186.0" y2="291.8435754189944" stroke="black" stroke-width="2"/>
<text x="150.0" y="500" text-anchor="middle" font-size="11" transform="rotate(20 150.0 500)">ROUND_ROBIN</text>
<line x1="310.0" y1="261.0614525139665" x2="310.0" y2="305.64245810055866" stroke="black"/>
<line x1="310.0" y1="402.76536312849174" x2="310.0" y2="450.0" stroke="black"/>
<rect x="274.0" y="305.64245810055866" width="72.0" height="97.12290502793309" fill="#cfe8ff" stroke="black"/>
<line x1="274.0" y1="334.30167597765364" x2="346.0" y2="334.30167597765364" stroke="black" stroke-width="2"/>
<text x="310.0" y="500" text-anchor="middle" font-size="11" transform="rotate(20 310.0 500)">FCFS</text>
<line x1="470.0" y1="165.5307262569832" x2="470.0" y2="210.11173184357543" stroke="black"/>
<line x1="470.0" y1="307.2346368715084" x2="470.0" y2="354.4692737430168" stroke="black"/>
<rect x="434.0" y="210.11173184357543" width="72.0" height="97.122905027933" fill="#cfe8ff" stroke="black"/>
<line x1="434.0" y1="238.77094972067044" x2="506.0" y2="238.77094972067044" stroke="black" stroke-width="2"/>
<text x="470.0" y="500" text-anchor="middle" font-size="11" transform="rotate(20 470.0 500)">BEST_FIT</text>
<line x1="630.0" y1="112.45810055865925" x2="630.0" y2="157.03910614525137" stroke="black"/>
<line x1="630.0" y1="254.16201117318434" x2="630.0" y2="301.3966480446927" stroke="black"/>
<rect x="594.0" y="157.03910614525137" width="72.0" height="97.12290502793297" fill="#cfe8ff" stroke="black"/>
<line x1="594.0" y1="185.69832402234636" x2="666.0" y2="185.69832402234636" stroke="black" stroke-width="2"/>
<text x="630.0" y="500" text-anchor="middle" font-size="11" transform="rotate(20 630.0 500)">PSO_STANDARD</text>
<line x1="790.0" y1="70.0" x2="790.0" y2="114.58100558659223" stroke="black"/>
<line x1="790.0" y1="211.70391061452509" x2="790.0" y2="258.9385474860336" stroke="black"/>
<rect x="754.0" y="114.58100558659223" width="72.0" height="97.12290502793286" fill="#cfe8ff" stroke="black"/>
<line x1="754.0" y1="143.24022346368722" x2="826.0" y2="143.24022346368722" stroke="black" stroke-width="2"/>
<text x="790.0" y="500" text-anchor="middle" font-size="11" transform="rotate(20 790.0 500)">PSO_MODIFIED</text>
<line x1="950.0" y1="91.22905027932963" x2="950.0" y2="135.81005586592184" stroke="black"/>
<line x1="950.0" y1="232.93296089385473" x2="950.0" y2="280.1675977653632" stroke="black"/>
<rect x="914.0" y="135.81005586592184" width="72.0" height="97.12290502793289" fill="#cfe8ff" stroke="black"/>
<line x1="914.0" y1="164.46927374301674" x2="986.0" y2="164.46927374301674" stroke="black" stroke-width="2"/>
<text x="950.0" y="500" text-anchor="middle" font-size="11" transform="rotate(20 950.0 500)">HYBRID</text>
</svg>